<?xml version="1.0" encoding="UTF-8" standalone="no"?>
<!DOCTYPE svg PUBLIC "-//W3C//DTD SVG 1.1//EN" "http://www.w3.org/Graphics/SVG/1.1/DTD/svg11.dtd">
<!-- 由 Microsoft Visio, SVG Export 生成 cpp_model_class.svg class -->
<svg xmlns="http://www.w3.org/2000/svg" xmlns:xlink="http://www.w3.org/1999/xlink" xmlns:ev="http://www.w3.org/2001/xml-events"
		xmlns:v="http://schemas.microsoft.com/visio/2003/SVGExtensions/" width="3.93701in" height="1.9685in"
		viewBox="0 0 283.465 141.732" xml:space="preserve" color-interpolation-filters="sRGB" class="st17">
	<v:documentProperties v:langID="2052" v:metric="true" v:viewMarkup="false">
		<v:userDefs>
			<v:ud v:nameU="msvSubprocessMaster" v:prompt="" v:val="VT4(Rectangle)"/>
			<v:ud v:nameU="msvNoAutoConnect" v:val="VT0(1):26"/>
		</v:userDefs>
	</v:documentProperties>

	<style type="text/css">
	<![CDATA[
		.st1 {visibility:visible}
		.st2 {fill:#5b9bd5;fill-opacity:0.22;filter:url(#filter_2);stroke:#5b9bd5;stroke-opacity:0.22}
		.st3 {fill:#5b9bd5;stroke:#c7c8c8;stroke-width:0.25}
		.st4 {fill:none;filter:url(#filter_2);stroke:#5b9bd5;stroke-opacity:0.22}
		.st5 {fill:none;stroke:#000000;stroke-width:0.25}
		.st6 {fill:#feffff;font-family:Bookerly;font-size:0.833336em}
		.st7 {fill:none;stroke:none;stroke-width:0.25}
		.st8 {fill:#5b9bd5;font-family:Bookerly;font-size:1.00001em}
		.st9 {marker-end:url(#mrkr4-47);stroke:#000000;stroke-linecap:round;stroke-linejoin:round;stroke-width:1}
		.st10 {fill:#000000;fill-opacity:1;stroke:#000000;stroke-opacity:1;stroke-width:0.28409090909091}
		.st11 {fill:#5b9bd5;fill-opacity:0.25;filter:url(#filter_2)}
		.st12 {fill:none;filter:url(#filter_2);stroke:#5b9bd5;stroke-opacity:0.25}
		.st13 {fill:#ffffff}
		.st14 {stroke:#40709c;stroke-width:0.75}
		.st15 {fill:#41719c;font-family:Bookerly;font-size:0.833336em}
		.st16 {font-size:1em}
		.st17 {fill:none;fill-rule:evenodd;font-size:12px;overflow:visible;stroke-linecap:square;stroke-miterlimit:3}
	]]>
	</style>

	<defs id="Markers">
		<g id="lend4">
			<path d="M 2 1 L 0 0 L 2 -1 L 2 1 " style="stroke:none"/>
		</g>
		<marker id="mrkr4-47" class="st10" v:arrowType="4" v:arrowSize="2" v:setback="7.04" refX="-7.04" orient="auto"
				markerUnits="strokeWidth" overflow="visible">
			<use xlink:href="#lend4" transform="scale(-3.52,-3.52) "/>
		</marker>
	</defs>
	<defs id="Filters">
		<filter id="filter_2">
			<feGaussianBlur stdDeviation="2"/>
		</filter>
	</defs>
	<g v:mID="5" v:index="3" v:groupContext="foregroundPage">
		<v:userDefs>
			<v:ud v:nameU="msvThemeOrder" v:val="VT0(0):26"/>
		</v:userDefs>
		<title>class</title>
		<v:pageProperties v:drawingScale="0.0393701" v:pageScale="0.0393701" v:drawingUnits="24" v:shadowOffsetX="8.50394"
				v:shadowOffsetY="-8.50394"/>
		<v:layer v:name="标注" v:index="0"/>
		<v:layer v:name="连接线" v:index="1"/>
		<g id="group1012-1" transform="translate(26.9291,-18)" v:mID="1012" v:groupContext="group">
			<title>工作表.1012</title>
			<g id="shape1001-2" v:mID="1001" v:groupContext="shape" transform="translate(45.3543,-77.7402)">
				<title>正方形.1001</title>
				<v:userDefs>
					<v:ud v:nameU="visVersion" v:val="VT0(15):26"/>
				</v:userDefs>
				<g id="shadow1001-3" v:groupContext="shadow" v:shadowOffsetX="0.345598" v:shadowOffsetY="-1.97279" v:shadowType="1"
						transform="matrix(1,0,0,1,0.345598,1.97279)" class="st1">
					<rect x="0" y="113.386" width="28.3465" height="28.3465" class="st2"/>
				</g>
				<rect x="0" y="113.386" width="28.3465" height="28.3465" class="st3"/>
			</g>
			<g id="shape1002-7" v:mID="1002" v:groupContext="shape" transform="translate(90.7087,-38.5512)">
				<title>矩形.1002</title>
				<v:userDefs>
					<v:ud v:nameU="visVersion" v:val="VT0(15):26"/>
				</v:userDefs>
				<g id="shadow1002-8" v:groupContext="shadow" v:shadowOffsetX="0.345598" v:shadowOffsetY="-1.97279" v:shadowType="1"
						transform="matrix(1,0,0,1,0.345598,1.97279)" class="st1">
					<rect x="0" y="95.8819" width="28.3465" height="45.8504" class="st4"/>
				</g>
				<rect x="0" y="95.8819" width="28.3465" height="45.8504" class="st5"/>
			</g>
			<g id="shape1004-12" v:mID="1004" v:groupContext="shape" transform="translate(90.7087,-19.2756)">
				<title>矩形.1004</title>
				<desc>1</desc>
				<v:userDefs>
					<v:ud v:nameU="visVersion" v:val="VT0(15):26"/>
				</v:userDefs>
				<v:textBlock v:margins="rect(4,4,4,4)" v:tabSpace="42.5197"/>
				<v:textRect cx="14.1732" cy="132.307" width="28.35" height="18.8504"/>
				<g id="shadow1004-13" v:groupContext="shadow" v:shadowOffsetX="0.345598" v:shadowOffsetY="-1.97279"
						v:shadowType="1" transform="matrix(1,0,0,1,0.345598,1.97279)" class="st1">
					<rect x="0" y="122.882" width="28.3465" height="18.8504" class="st2"/>
				</g>
				<rect x="0" y="122.882" width="28.3465" height="18.8504" class="st3"/>
				<text x="11.06" y="135.31" class="st6" v:langID="2052"><v:paragraph v:horizAlign="1"/><v:tabList/>1</text>			</g>
			<g id="shape1005-18" v:mID="1005" v:groupContext="shape" transform="translate(90.7087,0)">
				<title>矩形.1005</title>
				<desc>2</desc>
				<v:userDefs>
					<v:ud v:nameU="visVersion" v:val="VT0(15):26"/>
				</v:userDefs>
				<v:textBlock v:margins="rect(4,4,4,4)" v:tabSpace="42.5197"/>
				<v:textRect cx="14.1732" cy="132.307" width="28.35" height="18.8504"/>
				<g id="shadow1005-19" v:groupContext="shadow" v:shadowOffsetX="0.345598" v:shadowOffsetY="-1.97279"
						v:shadowType="1" transform="matrix(1,0,0,1,0.345598,1.97279)" class="st1">
					<rect x="0" y="122.882" width="28.3465" height="18.8504" class="st2"/>
				</g>
				<rect x="0" y="122.882" width="28.3465" height="18.8504" class="st3"/>
				<text x="11.06" y="135.31" class="st6" v:langID="2052"><v:paragraph v:horizAlign="1"/><v:tabList/>2</text>			</g>
			<g id="shape1006-24" v:mID="1006" v:groupContext="shape" transform="translate(201.26,-87.2362)">
				<title>矩形.1006</title>
				<desc>1</desc>
				<v:userDefs>
					<v:ud v:nameU="visVersion" v:val="VT0(15):26"/>
				</v:userDefs>
				<v:textBlock v:margins="rect(4,4,4,4)" v:tabSpace="42.5197"/>
				<v:textRect cx="14.1732" cy="132.307" width="28.35" height="18.8504"/>
				<g id="shadow1006-25" v:groupContext="shadow" v:shadowOffsetX="0.345598" v:shadowOffsetY="-1.97279"
						v:shadowType="1" transform="matrix(1,0,0,1,0.345598,1.97279)" class="st1">
					<rect x="0" y="122.882" width="28.3465" height="18.8504" class="st2"/>
				</g>
				<rect x="0" y="122.882" width="28.3465" height="18.8504" class="st3"/>
				<text x="11.06" y="135.31" class="st6" v:langID="2052"><v:paragraph v:horizAlign="1"/><v:tabList/>1</text>			</g>
			<g id="shape1007-30" v:mID="1007" v:groupContext="shape" transform="translate(201.26,-67.9606)">
				<title>矩形.1007</title>
				<desc>2</desc>
				<v:userDefs>
					<v:ud v:nameU="visVersion" v:val="VT0(15):26"/>
				</v:userDefs>
				<v:textBlock v:margins="rect(4,4,4,4)" v:tabSpace="42.5197"/>
				<v:textRect cx="14.1732" cy="132.307" width="28.35" height="18.8504"/>
				<g id="shadow1007-31" v:groupContext="shadow" v:shadowOffsetX="0.345598" v:shadowOffsetY="-1.97279"
						v:shadowType="1" transform="matrix(1,0,0,1,0.345598,1.97279)" class="st1">
					<rect x="0" y="122.882" width="28.3465" height="18.8504" class="st2"/>
				</g>
				<rect x="0" y="122.882" width="28.3465" height="18.8504" class="st3"/>
				<text x="11.06" y="135.31" class="st6" v:langID="2052"><v:paragraph v:horizAlign="1"/><v:tabList/>2</text>			</g>
			<g id="shape1009-36" v:mID="1009" v:groupContext="shape" transform="translate(155.055,-86.0866)">
				<title>工作表.1009</title>
				<desc>xy:</desc>
				<v:textBlock v:margins="rect(4,4,4,4)" v:tabSpace="42.5197" v:verticalAlign="2"/>
				<v:textRect cx="23.1732" cy="131.732" width="46.35" height="20"/>
				<rect x="0" y="121.732" width="46.3465" height="20" class="st7"/>
				<text x="18.17" y="134.13" class="st8" v:langID="2052"><v:paragraph v:indentLeft="14.17"/><v:tabList/>xy:</text>			</g>
			<g id="shape1010-39" v:mID="1010" v:groupContext="shape" transform="translate(1.59872E-14,-86.0866)">
				<title>工作表.1010</title>
				<desc>p:</desc>
				<v:textBlock v:margins="rect(4,4,4,4)" v:tabSpace="42.5197" v:verticalAlign="2"/>
				<v:textRect cx="23.1732" cy="131.732" width="46.35" height="20"/>
				<rect x="0" y="121.732" width="46.3465" height="20" class="st7"/>
				<text x="18.17" y="134.13" class="st8" v:langID="2052"><v:paragraph v:indentLeft="14.17"/><v:tabList/>p:</text>			</g>
			<g id="shape1011-42" v:mID="1011" v:groupContext="shape" v:layerMember="1" transform="translate(59.5276,-77.7402)">
				<title>动态连接线.1011</title>
				<path d="M0 141.73 L27.4 184.83" class="st9"/>
			</g>
			<g id="shape1008-48" v:mID="1008" v:groupContext="shape" v:layerMember="0" transform="translate(117.071,-63.7087)">
				<title>思想气泡.1008</title>
				<desc>Heap info</desc>
				<v:userDefs>
					<v:ud v:nameU="BackFillColor" v:prompt="" v:val="VT5(#96afcf)"/>
					<v:ud v:nameU="BackLineColor" v:prompt="" v:val="VT5(#1f477d)"/>
					<v:ud v:nameU="BackCharColor" v:prompt="" v:val="VT5(#000000)"/>
					<v:ud v:nameU="DarkerColor" v:prompt="" v:val="VT5(#000000)"/>
					<v:ud v:nameU="visVersion" v:prompt="" v:val="VT0(15):26"/>
					<v:ud v:nameU="msvStructureType" v:prompt="" v:val="VT4(Callout)"/>
					<v:ud v:nameU="msvSDTargetIntersection" v:prompt=""/>
					<v:ud v:nameU="msvSDCalloutNoHighlight" v:prompt="" v:val="VT0(0):5"/>
					<v:ud v:nameU="msvShapeCategories" v:prompt="" v:val="VT0(0):26"/>
					<v:ud v:nameU="LeaderEnd" v:prompt="" v:val="VT7(PNT(-6MM,-9MM)):40"/>
					<v:ud v:nameU="Embellishment" v:prompt="" v:val="VT0(2):26"/>
					<v:ud v:nameU="Theta" v:prompt="" v:val="VT0(0.97860964724525):32"/>
					<v:ud v:nameU="PntOnEllp" v:prompt="" v:val="VT7(PNT(2.0341870190681MM,-1.8343737397501MM)):40"/>
					<v:ud v:nameU="LeaderSize" v:prompt="" v:val="VT7(PNT(8.0341870190681MM,7.1656262602499MM)):40"/>
					<v:ud v:nameU="BackFillColor" v:prompt="" v:val="VT5(#4f88bb)"/>
					<v:ud v:nameU="BackLineColor" v:prompt="" v:val="VT5(#41719c)"/>
					<v:ud v:nameU="BackCharColor" v:prompt="" v:val="VT5(#feffff)"/>
					<v:ud v:nameU="DarkerColor" v:prompt="" v:val="VT5(#41719c)"/>
					<v:ud v:nameU="msvSDTargetIntersection" v:prompt="" v:val="VT7(PNT(0.027559046200875,0.09445352065146)):40"/>
					<v:ud v:nameU="LeaderEnd" v:prompt="" v:val="VT7(PNT(0.027559046200875,0.09445352065146)):40"/>
					<v:ud v:nameU="Theta" v:prompt="" v:val="VT0(0.59340691967314):32"/>
					<v:ud v:nameU="PntOnEllp" v:prompt="" v:val="VT7(PNT(-0.060890143644072,0.038082731084614)):40"/>
					<v:ud v:nameU="LeaderSize" v:prompt="" v:val="VT7(PNT(-0.088449189844947,-0.056370789566846)):40"/>
				</v:userDefs>
				<v:textBlock v:margins="rect(4,4,4,4)" v:tabSpace="42.5197"/>
				<v:textRect cx="18" cy="124.724" width="36" height="32.0037"/>
				<g id="shadow1008-49" v:groupContext="shadow" v:shadowOffsetX="0.345598" v:shadowOffsetY="-1.97279"
						v:shadowType="1" transform="matrix(1,0,0,1,0.345598,1.97279)" class="st1">
					<path d="M-1.48 144.1 A10.8684 15.4032 -180 0 0 11.84 147.36 A8.85896 12.5554 -180 0 0 27.2 144.1 A7.77743 11.0226
								 -180 0 0 38.47 135.96 A7.17457 10.1682 -180 0 0 43.59 119.68 A5.79137 8.20783 -180 0 0 39.49 108.28
								 A6.75721 9.57667 -180 0 0 28.22 104.21 A5.79159 8.20815 -180 0 0 19 105.02 A9.09787 12.894 -180
								 0 0 8.25 107.46 A8.55722 12.1277 -180 0 0 -4.29 118.46 A4.81751 6.82763 -180 0 0 -6.34 131.48 A5.11264
								 7.24589 -180 0 0 -1.48 144.1 ZM1.11 135.95 a0.72 0.72 -180 1 0 -1.44 0 a0.72 0.72 -180 1 0 1.44
								 0 ZM0.37 136.88 A1.44 1.44 -180 1 0 -2.51 136.88 A1.44 1.44 -180 1 0 0.37 136.88 ZM-0.63 137.98
								 A2.16 2.16 -180 1 0 -4.95 137.98 A2.16 2.16 -180 1 0 -0.63 137.98 Z" class="st11"/>
					<path d="M-1.48 144.1 A10.8684 15.4032 -180 0 0 11.84 147.36 A8.85896 12.5554 -180 0 0 27.2 144.1 A7.77743 11.0226
								 -180 0 0 38.47 135.96 A7.17457 10.1682 -180 0 0 43.59 119.68 A5.79137 8.20783 -180 0 0 39.49 108.28
								 A6.75721 9.57667 -180 0 0 28.22 104.21 A5.79159 8.20815 -180 0 0 19 105.02 A9.09787 12.894 -180
								 0 0 8.25 107.46 A8.55722 12.1277 -180 0 0 -4.29 118.46 A4.81751 6.82763 -180 0 0 -6.34 131.48 A5.11264
								 7.24589 -180 0 0 -1.48 144.1" class="st12"/>
					<path d="M-6.34 131.48 A3.82071 5.41491 -180 0 0 -3.53 131.88" class="st12"/>
					<path d="M11.07 145.32 A5.05128 7.15894 -180 0 0 11.84 147.36" class="st12"/>
					<path d="M27.2 144.1 A4.34501 6.15797 -180 0 0 27.59 141.66" class="st12"/>
					<path d="M38.47 135.96 A4.03316 5.71601 -180 0 0 35.4 129.44" class="st12"/>
					<path d="M42.05 122.12 A3.52076 4.98981 -180 0 0 43.59 119.68" class="st12"/>
					<path d="M9.79 109.09 A5.18065 7.34228 -180 0 0 8.25 107.46" class="st12"/>
					<path d="M1.11 135.95 a0.72 0.72 -180 1 0 -1.44 0 a0.72 0.72 -180 1 0 1.44 0" class="st12"/>
					<path d="M0.37 136.88 A1.44 1.44 -180 1 0 -2.51 136.88 A1.44 1.44 -180 1 0 0.37 136.88" class="st12"/>
					<path d="M-0.63 137.98 A2.16 2.16 -180 1 0 -4.95 137.98 A2.16 2.16 -180 1 0 -0.63 137.98" class="st12"/>
				</g>
				<path d="M-1.48 144.1 A10.8684 15.4032 -180 0 0 11.84 147.36 A8.85896 12.5554 -180 0 0 27.2 144.1 A7.77743 11.0226
							 -180 0 0 38.47 135.96 A7.17457 10.1682 -180 0 0 43.59 119.68 A5.79137 8.20783 -180 0 0 39.49 108.28
							 A6.75721 9.57667 -180 0 0 28.22 104.21 A5.79159 8.20815 -180 0 0 19 105.02 A9.09787 12.894 -180 0 0
							 8.25 107.46 A8.55722 12.1277 -180 0 0 -4.29 118.46 A4.81751 6.82763 -180 0 0 -6.34 131.48 A5.11264 7.24589
							 -180 0 0 -1.48 144.1 ZM1.11 135.95 a0.72 0.72 -180 1 0 -1.44 0 a0.72 0.72 -180 1 0 1.44 0 ZM0.37 136.88
							 A1.44 1.44 -180 1 0 -2.51 136.88 A1.44 1.44 -180 1 0 0.37 136.88 ZM-0.63 137.98 A2.16 2.16 -180 1 0
							 -4.95 137.98 A2.16 2.16 -180 1 0 -0.63 137.98 Z" class="st13"/>
				<path d="M-1.48 144.1 A10.8684 15.4032 -180 0 0 11.84 147.36 A8.85896 12.5554 -180 0 0 27.2 144.1 A7.77743 11.0226
							 -180 0 0 38.47 135.96 A7.17457 10.1682 -180 0 0 43.59 119.68 A5.79137 8.20783 -180 0 0 39.49 108.28
							 A6.75721 9.57667 -180 0 0 28.22 104.21 A5.79159 8.20815 -180 0 0 19 105.02 A9.09787 12.894 -180 0 0
							 8.25 107.46 A8.55722 12.1277 -180 0 0 -4.29 118.46 A4.81751 6.82763 -180 0 0 -6.34 131.48 A5.11264 7.24589
							 -180 0 0 -1.48 144.1" class="st14"/>
				<path d="M-6.34 131.48 A3.82071 5.41491 -180 0 0 -3.53 131.88" class="st14"/>
				<path d="M11.07 145.32 A5.05128 7.15894 -180 0 0 11.84 147.36" class="st14"/>
				<path d="M27.2 144.1 A4.34501 6.15797 -180 0 0 27.59 141.66" class="st14"/>
				<path d="M38.47 135.96 A4.03316 5.71601 -180 0 0 35.4 129.44" class="st14"/>
				<path d="M42.05 122.12 A3.52076 4.98981 -180 0 0 43.59 119.68" class="st14"/>
				<path d="M9.79 109.09 A5.18065 7.34228 -180 0 0 8.25 107.46" class="st14"/>
				<path d="M1.11 135.95 a0.72 0.72 -180 1 0 -1.44 0 a0.72 0.72 -180 1 0 1.44 0" class="st14"/>
				<path d="M0.37 136.88 A1.44 1.44 -180 1 0 -2.51 136.88 A1.44 1.44 -180 1 0 0.37 136.88" class="st14"/>
				<path d="M-0.63 137.98 A2.16 2.16 -180 1 0 -4.95 137.98 A2.16 2.16 -180 1 0 -0.63 137.98" class="st14"/>
				<text x="5.48" y="121.72" class="st15" v:langID="2052"><v:paragraph v:horizAlign="1"/><v:tabList/>Heap <tspan
							x="8.17" dy="1.2em" class="st16">info</tspan></text>			</g>
		</g>
	</g>
</svg>
